<?xml version="1.0" encoding="UTF-8"?>
<svg id="Layer_2" data-name="Layer 2" xmlns="http://www.w3.org/2000/svg" viewBox="0 0 358.08 138.16">
  <defs>
    <style>
      .cls-1 {
        fill: #288fb2;
      }
    </style>
  </defs>
  <g id="Layer_1-2" data-name="Layer 1">
    <g>
      <g>
        <path class="cls-1" d="M74.01,4V75.43H4V4H74.01M78.01,0H0V79.43H78.01V0h0Z"/>
        <g>
          <path class="cls-1" d="M319.05,23.69c-5.76,14.68-8.63,22.37-8.63,23.06,0,.95,1.06,1.5,3.17,1.67,.11,.03,1.47,.04,4.09,.04h4.3c3.98,0,5.96-.56,5.96-1.67,0-.81-1.25-4.42-3.75-10.84-2.42-6.23-4.13-10.31-5.13-12.26Z"/>
          <path class="cls-1" d="M76.64,0V79.35H358.08V0H76.64Zm69,70.31c-.5,0-1.26-.04-2.27-.13-1.02-.08-1.77-.13-2.27-.13s-1.27,.04-2.29,.13c-1.03,.08-1.79,.13-2.29,.13-.7,0-1.04-.46-1.04-1.38,0-3.53,.11-8.83,.33-15.89,.22-7.06,.33-12.36,.33-15.89,0-.53-.11-.79-.33-.79-.25,0-.44,.15-.58,.46-1.42,3.03-4.77,11.12-10.05,24.27-.86,2.53-2.1,5.69-3.71,9.47-.19,.36-1.2,.54-3,.54-2.61,0-4.06-.24-4.34-.71-.95-2.25-2.29-5.41-4.05-9.47-2.31-5.5-5.85-13.71-10.63-24.61-.08-.19-.26-.39-.54-.58-.22,.17-.33,.47-.33,.92,0,3.59,.06,8.97,.19,16.14,.12,7.17,.19,12.55,.19,16.14,0,.92-.35,1.38-1.04,1.38-.47,0-1.2-.04-2.17-.13-.97-.08-1.7-.13-2.17-.13-.5,0-1.24,.04-2.23,.13-.99,.08-1.73,.13-2.23,.13-.7,0-1.04-.26-1.04-.79,0-3.09,.15-7.71,.44-13.87,.29-6.16,.44-10.78,.44-13.87s-.15-8-.44-14.41c-.29-6.41-.44-11.21-.44-14.41,0-.53,.32-.83,.96-.92,3.78-.5,6.63-.75,8.55-.75,.28,0,.67,.57,1.17,1.71,6.73,14.79,12.51,28,17.35,39.62,1.14,2.73,1.82,4.09,2.04,4.09,.28,0,.88-1.11,1.79-3.34,3.78-9.01,9.02-22.38,15.72-40.12,.42-1.08,.88-1.63,1.38-1.63,.94,0,2.37,.06,4.28,.17,1.9,.11,3.33,.17,4.27,.17,.69,0,1.04,.33,1.04,1,0,3.2-.1,8-.31,14.41-.21,6.41-.31,11.21-.31,14.41s.12,7.65,.35,13.76c.24,6.12,.35,10.69,.35,13.72,0,.7-.35,1.04-1.04,1.04Zm49.04-6.46c-.25,1.06-.4,1.7-.46,1.92-.08,1-.28,2.46-.58,4.38-.14,.5-.5,.75-1.08,.75-.28,0-.81-.06-1.58-.17-3.42-.5-8.72-.75-15.89-.75-2.03,0-5.09,.06-9.17,.17-4.09,.11-7.15,.17-9.18,.17-.92,0-1.38-.4-1.38-1.21,0-3.11,.17-7.79,.52-14.03,.35-6.24,.52-10.92,.52-14.03s-.17-9.08-.5-17.72c-.06-2.22-.21-5.55-.46-9.97l-.04-.58c-.03-.64,.33-.96,1.08-.96,1.95,0,4.86,.06,8.76,.17,3.89,.11,6.81,.17,8.76,.17s4.65-.06,8.36-.17c3.71-.11,6.5-.17,8.36-.17,1.31,0,2.02,.4,2.13,1.21,.58,3.67,.88,5.95,.88,6.84,0,.64-.31,.96-.92,.96-2.36,0-5.94-.13-10.74-.4-4.8-.26-8.4-.4-10.82-.4-2.28,0-3.72,.31-4.32,.92-.6,.61-.9,2.13-.9,4.55v6.21c0,1.7,.04,2.68,.13,2.96,.25,.86,.97,1.29,2.17,1.29,.33,0,.81-.01,1.42-.04h1.42c5.45,0,10.34-.1,14.68-.29,1.7-.06,3.7-.19,6.01-.42,.58-.06,.88,.2,.88,.75,0,.89-.1,2.25-.31,4.09-.21,1.83-.31,3.21-.31,4.13,0,.5-.42,.75-1.25,.75-.33,0-1.57-.1-3.71-.29-1.56-.17-5.06-.25-10.51-.25-4.59,0-7.49,.06-8.72,.17-1.11,.08-1.75,.67-1.92,1.75,.03-.19,.04,.88,.04,3.21v6.17c0,2.89,.44,4.7,1.33,5.42,.69,.58,2.43,.88,5.21,.88l4.59-.04c1.95,0,7.41-.33,16.39-1l.63-.04c.56-.06,.83,.29,.83,1.04,0,.45-.11,1.08-.33,1.92Zm43.87-23.73c-3.28,4.25-6.55,8.51-9.8,12.76-.81,1.06-1.21,2.14-1.21,3.25,0,1.5,.08,3.75,.23,6.74,.15,2.99,.23,5.22,.23,6.69,0,.5-.35,.75-1.04,.75h-9.93c-.56,0-.83-.4-.83-1.21,0-1.42,.1-3.57,.29-6.46,.19-2.89,.29-5.06,.29-6.51,0-1.25-.35-2.36-1.04-3.34-2-2.59-4.99-6.48-8.97-11.68-3.39-4.64-5.84-8.17-7.34-10.59-.5-.83-.75-1.64-.75-2.42-.06-3.5-.08-8.56-.08-15.18,0-.75,.33-1.13,1-1.13,.47,0,1.17,.04,2.11,.13,.93,.08,1.63,.13,2.11,.13,.56,0,1.39-.04,2.5-.13,1.11-.08,1.96-.13,2.54-.13,.5,0,.75,.22,.75,.67,0,1.56-.08,3.89-.25,7.01-.17,3.11-.25,5.45-.25,7.01,0,1.67,4.41,7.54,13.22,17.6,2.09-2.36,4.48-5.3,7.17-8.8,3.75-4.84,5.63-7.74,5.63-8.72,0-1.5-.11-3.77-.33-6.82-.22-3.04-.33-5.32-.33-6.82,0-.75,.32-1.13,.96-1.13,.5,0,1.27,.04,2.29,.13,1.03,.08,1.79,.13,2.29,.13,.53,0,1.33-.04,2.4-.13,1.07-.08,1.87-.13,2.4-.13,.67,0,1,.46,1,1.38,0,1.58,.03,3.98,.08,7.17,.06,3.2,.08,5.59,.08,7.17s-2.47,5.78-7.42,12.59Zm51.76,29.44c-.19,.81-.68,1.21-1.46,1.21-2.06,0-5.14-.12-9.26-.35-4.11-.24-7.2-.35-9.26-.35-1.95,0-4.85,.04-8.72,.13-4.63,.1-7.88,.14-9.75,.12-.03-2.98,.07-7.9,.31-14.76,.21-6.12,.31-10.7,.31-13.76,0-3.22-.15-8.06-.44-14.49-.29-6.44-.44-11.27-.44-14.49,0-.61,.35-.92,1.04-.92,.5,0,1.27,.04,2.29,.13,1.03,.08,1.81,.13,2.34,.13,.5,0,1.28-.04,2.34-.13,1.06-.08,1.83-.13,2.34-.13,.67,0,1,.26,1,.79,0,2.95-.11,7.38-.33,13.3-.22,5.92-.33,10.37-.33,13.35v6.59c-.03,2.95-.04,5.14-.04,6.59,0,6.17,.25,9.26,.75,9.26,10.26,0,18-.25,23.23-.75,.25-.03,.89-.13,1.92-.29,.83-.17,1.47-.25,1.92-.25,.58,0,.88,.26,.88,.79,0,3.89-.21,6.66-.63,8.3Zm56.05,.75c-.53,0-1.3-.04-2.31-.13s-1.79-.13-2.31-.13-1.32,.04-2.38,.13c-1.06,.08-1.85,.13-2.38,.13-.78,0-1.77-2.11-2.98-6.32-1.21-4.21-2.44-6.35-3.69-6.4-1.03-.06-3.71-.08-8.05-.08h-6.59c-4.59,0-7.2,.03-7.84,.08-1,.08-2.06,2.22-3.19,6.42-1.13,4.2-2,6.3-2.61,6.3h-9.38c-.56,0-.83-.19-.83-.58,0-.28,.19-.9,.58-1.88l10.22-27.94c.86-2.25,3.48-8.74,7.84-19.48,.78-1.78,1.84-4.46,3.17-8.05,.33-1.06,.69-1.58,1.08-1.58,.53,0,1.31,.07,2.34,.21,1.03,.14,1.81,.21,2.34,.21,.5,0,1.26-.08,2.27-.23,1.01-.15,1.76-.23,2.23-.23,.25,0,.6,.51,1.04,1.54,.67,1.56,3.96,9.94,9.88,25.15,8.37,21.38,12.55,32.17,12.55,32.36,0,.33-.33,.5-1,.5Z"/>
        </g>
        <path class="cls-1" d="M64.74,26.7h0c-.63,0-1.14-.51-1.14-1.14v-5.23h.02V10.81h-.02s-9.52-.01-9.52-.01h0s-11.48,.01-11.48,.01h0s-9.52-.01-9.52-.01h0s-11.52,.01-11.52,.01h0s-8.39-.01-8.39-.01c-.63,0-1.14,.51-1.14,1.14V46.74c0,.63-.51,1.14-1.14,1.14h0c-.63,0-1.14,.51-1.14,1.14v8.31c0,.63,.51,1.14,1.14,1.14h0c.63,0,1.14,.51,1.14,1.14v7.9c0,.63,.51,1.14,1.14,1.14h7.25c.63,0,1.14-.51,1.14-1.14v-7.9c0-.63,.51-1.14,1.14-1.14h0c.63,0,1.14-.51,1.14-1.14v-8.31c0-.63-.51-1.14-1.14-1.14h0c-.63,0-1.14-.51-1.14-1.14V21.47c0-.63,.51-1.14,1.14-1.14h9.25c.63,0,1.14,.51,1.14,1.14v14.68c0,.63-.51,1.14-1.14,1.14h0c-.63,0-1.14,.51-1.14,1.14v8.31c0,.63,.51,1.14,1.14,1.14h0c.63,0,1.14,.51,1.14,1.14v18.48c0,.63,.51,1.14,1.14,1.14h7.25c.63,0,1.14-.51,1.14-1.14v-18.48c0-.63,.51-1.14,1.14-1.14h0c.63,0,1.14-.51,1.14-1.14v-8.31c0-.63-.51-1.14-1.14-1.14h0c-.63,0-1.14-.51-1.14-1.14v-14.68c0-.63,.51-1.14,1.14-1.14h9.21c.63,0,1.14,.51,1.14,1.14v4.09c0,.63-.51,1.14-1.14,1.14h0c-.63,0-1.14,.51-1.14,1.14v8.31c0,.63,.51,1.14,1.14,1.14h0c.63,0,1.14,.51,1.14,1.14v29.07c0,.63,.51,1.14,1.14,1.14h7.25c.63,0,1.14-.51,1.14-1.14v-29.07c0-.63,.51-1.14,1.14-1.14h0c.63,0,1.14-.51,1.14-1.14v-8.31c0-.63-.51-1.14-1.14-1.14Z"/>
      </g>
      <g>
        <g>
          <path class="cls-1" d="M6.56,135.49h.05l4.22-10.74h2.23v13.22h-1.79v-9.91h-.05s-4.01,9.91-4.01,9.91h-1.24l-4.12-10.24h-.05v10.24H0v-13.22H2.35l4.21,10.74Z"/>
          <path class="cls-1" d="M24.31,131.84h-5.43v4.73h6.36v1.4h-8.15v-13.22h8.05v1.41h-6.26v4.28h5.43v1.41Z"/>
          <path class="cls-1" d="M32.59,131.47l3.45-6.72h2.04l-4.64,8.57v4.65h-1.78v-4.79l-4.57-8.44h2.04l3.45,6.72Z"/>
          <path class="cls-1" d="M42.76,136.57h6.45v1.4h-8.24v-13.22h1.79v11.83Z"/>
          <path class="cls-1" d="M59.13,134.57h-4.98l-1.18,3.41h-1.83l4.77-13.22h1.53l4.67,13.22h-1.83l-1.16-3.41Zm-4.46-1.5h3.95l-1.93-5.68h-.05l-1.97,5.68Z"/>
          <path class="cls-1" d="M77.59,134.64c0-.6-.21-1.1-.64-1.51s-1.19-.75-2.27-1.04c-1.34-.33-2.39-.82-3.15-1.47s-1.13-1.46-1.13-2.44c0-1.04,.41-1.9,1.22-2.59s1.86-1.04,3.16-1.04c1.39,0,2.5,.4,3.33,1.19s1.23,1.71,1.2,2.77l-.03,.05h-1.71c0-.75-.26-1.37-.79-1.86s-1.19-.74-2.01-.74-1.48,.2-1.92,.61-.67,.93-.67,1.58c0,.58,.24,1.06,.73,1.44,.49,.38,1.28,.72,2.38,1.01,1.33,.35,2.35,.85,3.04,1.53,.7,.67,1.04,1.5,1.04,2.49,0,1.07-.42,1.92-1.26,2.57-.84,.65-1.93,.97-3.28,.97-1.28,0-2.41-.36-3.38-1.07s-1.45-1.67-1.42-2.87l.02-.05h1.71c0,.83,.31,1.47,.94,1.92,.63,.45,1.34,.68,2.13,.68,.85,0,1.52-.19,2.01-.57s.74-.9,.74-1.55Z"/>
          <path class="cls-1" d="M89.68,134.57h-4.98l-1.18,3.41h-1.83l4.77-13.22h1.53l4.67,13.22h-1.83l-1.16-3.41Zm-4.46-1.5h3.95l-1.93-5.68h-.05l-1.97,5.68Z"/>
          <path class="cls-1" d="M98.76,134.5l.3,1.1h.05l.3-1.1,3.41-9.75h1.93l-4.91,13.22h-1.53l-4.91-13.22h1.94l3.41,9.75Z"/>
          <path class="cls-1" d="M109.42,137.97h-1.8v-13.22h1.8v13.22Z"/>
          <path class="cls-1" d="M123.63,137.97h-1.79l-6.37-10.1-.05,.02v10.08h-1.79v-13.22h1.79l6.37,10.09,.05-.02v-10.07h1.79v13.22Z"/>
          <path class="cls-1" d="M137.16,136.19c-.31,.49-.86,.94-1.64,1.35s-1.79,.62-3.03,.62c-1.53,0-2.79-.51-3.79-1.52s-1.5-2.32-1.5-3.92v-2.72c0-1.6,.48-2.91,1.44-3.92,.96-1.01,2.2-1.52,3.72-1.52s2.63,.39,3.49,1.18c.85,.78,1.27,1.78,1.24,2.99l-.02,.05h-1.72c0-.81-.26-1.48-.78-2.01s-1.26-.8-2.22-.8c-1.01,0-1.83,.38-2.44,1.14-.62,.76-.93,1.72-.93,2.88v2.74c0,1.17,.33,2.14,.98,2.9,.65,.76,1.49,1.14,2.51,1.14,.78,0,1.4-.1,1.86-.3s.8-.44,1.02-.72v-2.98h-3v-1.4h4.79v4.83Z"/>
          <path class="cls-1" d="M153.57,134.57h-4.98l-1.18,3.41h-1.83l4.77-13.22h1.53l4.67,13.22h-1.83l-1.16-3.41Zm-4.46-1.5h3.95l-1.93-5.68h-.05l-1.97,5.68Z"/>
          <path class="cls-1" d="M169.43,137.97h-1.79l-6.37-10.1-.05,.02v10.08h-1.79v-13.22h1.79l6.37,10.09,.05-.02v-10.07h1.79v13.22Z"/>
          <path class="cls-1" d="M173.45,137.97v-13.22h4.16c1.73,0,3.11,.53,4.16,1.59,1.05,1.06,1.58,2.44,1.58,4.12v1.81c0,1.69-.53,3.06-1.58,4.12s-2.44,1.58-4.16,1.58h-4.16Zm1.79-11.82v10.42h2.37c1.22,0,2.19-.4,2.89-1.21s1.06-1.84,1.06-3.1v-1.83c0-1.25-.35-2.27-1.06-3.08s-1.67-1.21-2.89-1.21h-2.37Z"/>
          <path class="cls-1" d="M201.97,133.74l.02,.05c.02,1.24-.41,2.28-1.31,3.12-.9,.84-2.08,1.25-3.55,1.25s-2.71-.53-3.66-1.59c-.94-1.06-1.41-2.4-1.41-4.03v-2.35c0-1.63,.47-2.97,1.41-4.04,.94-1.06,2.16-1.59,3.66-1.59s2.69,.4,3.57,1.19c.88,.8,1.31,1.85,1.29,3.17l-.02,.05h-1.72c0-.93-.27-1.66-.82-2.2s-1.31-.81-2.31-.81-1.8,.4-2.39,1.21c-.59,.81-.89,1.8-.89,3v2.37c0,1.2,.3,2.21,.89,3.02s1.39,1.21,2.39,1.21,1.76-.27,2.31-.8,.82-1.28,.82-2.22h1.72Z"/>
          <path class="cls-1" d="M207.03,132.24v5.73h-1.79v-13.21h4.52c1.45,0,2.55,.32,3.32,.96s1.14,1.57,1.14,2.8c0,.68-.18,1.27-.53,1.77s-.87,.9-1.55,1.2c.73,.24,1.25,.62,1.57,1.15s.48,1.19,.48,1.97v1.24c0,.41,.05,.78,.14,1.11s.25,.59,.47,.8v.22h-1.84c-.24-.21-.39-.51-.45-.91s-.1-.81-.1-1.24v-1.21c0-.71-.21-1.29-.63-1.73s-.98-.65-1.68-.65h-3.06Zm0-1.41h2.55c1.01,0,1.74-.19,2.18-.58s.67-.97,.67-1.76c0-.74-.22-1.32-.65-1.73s-1.11-.61-2.02-.61h-2.73v4.68Z"/>
          <path class="cls-1" d="M225.23,131.84h-5.43v4.73h6.36v1.4h-8.15v-13.22h8.05v1.41h-6.26v4.28h5.43v1.41Z"/>
          <path class="cls-1" d="M229.2,137.97v-13.22h4.16c1.73,0,3.11,.53,4.16,1.59s1.58,2.44,1.58,4.12v1.81c0,1.69-.53,3.06-1.58,4.12s-2.44,1.58-4.16,1.58h-4.16Zm1.79-11.82v10.42h2.37c1.22,0,2.19-.4,2.89-1.21s1.06-1.84,1.06-3.1v-1.83c0-1.25-.35-2.27-1.06-3.08s-1.67-1.21-2.89-1.21h-2.37Z"/>
          <path class="cls-1" d="M244.71,137.97h-1.8v-13.22h1.8v13.22Z"/>
          <path class="cls-1" d="M257.9,126.16h-4.36v11.82h-1.79v-11.82h-4.31v-1.41h10.45v1.41Z"/>
          <path class="cls-1" d="M275.7,133.74l.02,.05c.02,1.24-.41,2.28-1.31,3.12-.9,.84-2.08,1.25-3.55,1.25s-2.71-.53-3.66-1.59c-.94-1.06-1.41-2.4-1.41-4.03v-2.35c0-1.63,.47-2.97,1.41-4.04,.94-1.06,2.16-1.59,3.66-1.59s2.69,.4,3.57,1.19,1.31,1.85,1.29,3.17l-.02,.05h-1.72c0-.93-.27-1.66-.82-2.2s-1.31-.81-2.31-.81-1.8,.4-2.39,1.21c-.59,.81-.89,1.8-.89,3v2.37c0,1.2,.3,2.21,.89,3.02,.59,.81,1.39,1.21,2.39,1.21s1.76-.27,2.31-.8,.82-1.28,.82-2.22h1.72Z"/>
          <path class="cls-1" d="M289.07,132.54c0,1.62-.5,2.96-1.5,4.02s-2.3,1.6-3.9,1.6-2.8-.53-3.76-1.6-1.45-2.41-1.45-4.02v-2.35c0-1.61,.48-2.95,1.45-4.02s2.22-1.61,3.76-1.61,2.9,.53,3.9,1.6c1,1.07,1.5,2.41,1.5,4.03v2.35Zm-1.79-2.37c0-1.21-.33-2.2-.98-2.98-.65-.78-1.53-1.16-2.63-1.16-1.04,0-1.87,.39-2.49,1.16-.62,.78-.93,1.77-.93,2.98v2.37c0,1.22,.31,2.22,.93,3,.62,.78,1.45,1.16,2.49,1.16,1.11,0,1.99-.39,2.64-1.16s.98-1.77,.98-3v-2.37Z"/>
          <path class="cls-1" d="M302.68,132.54c0,1.62-.5,2.96-1.5,4.02s-2.3,1.6-3.9,1.6-2.8-.53-3.76-1.6-1.45-2.41-1.45-4.02v-2.35c0-1.61,.48-2.95,1.45-4.02,.97-1.07,2.22-1.61,3.76-1.61s2.9,.53,3.9,1.6,1.5,2.41,1.5,4.03v2.35Zm-1.79-2.37c0-1.21-.33-2.2-.98-2.98s-1.53-1.16-2.63-1.16c-1.04,0-1.87,.39-2.49,1.16s-.93,1.77-.93,2.98v2.37c0,1.22,.31,2.22,.93,3,.62,.78,1.45,1.16,2.49,1.16,1.11,0,1.99-.39,2.64-1.16s.98-1.77,.98-3v-2.37Z"/>
          <path class="cls-1" d="M307.98,132.67v5.3h-1.79v-13.22h5.06c1.41,0,2.51,.36,3.29,1.09s1.18,1.68,1.18,2.87-.39,2.16-1.18,2.88c-.78,.72-1.88,1.08-3.29,1.08h-3.27Zm0-1.4h3.27c.9,0,1.57-.24,2.01-.72s.66-1.09,.66-1.82-.22-1.34-.67-1.83-1.11-.74-2-.74h-3.27v5.11Z"/>
          <path class="cls-1" d="M317.71,137.97h-1.79v-1.83h1.79v1.83Z"/>
          <path class="cls-1" d="M329.25,136.57h6.45v1.4h-8.24v-13.22h1.79v11.83Z"/>
          <path class="cls-1" d="M345.37,126.16h-4.36v11.82h-1.79v-11.82h-4.31v-1.41h10.45v1.41Z"/>
          <path class="cls-1" d="M348.18,137.97v-13.22h4.16c1.73,0,3.11,.53,4.16,1.59s1.58,2.44,1.58,4.12v1.81c0,1.69-.53,3.06-1.58,4.12-1.05,1.06-2.44,1.58-4.16,1.58h-4.16Zm1.79-11.82v10.42h2.37c1.22,0,2.19-.4,2.89-1.21s1.06-1.84,1.06-3.1v-1.83c0-1.25-.35-2.27-1.06-3.08s-1.67-1.21-2.89-1.21h-2.37Z"/>
        </g>
        <g>
          <path class="cls-1" d="M20.63,109.18v-4.75c0-1.53-.38-2.67-1.15-3.41s-1.84-1.13-3.23-1.16v5.3h-2.37v-5.3c-1.36,.04-2.42,.42-3.21,1.16s-1.17,1.87-1.17,3.38v.75h-2.37v-1.01c0-2.03,.62-3.6,1.85-4.69,1.23-1.1,2.87-1.68,4.9-1.74v-6.98h2.37v6.98c2.09,.07,3.73,.65,4.94,1.74,1.21,1.09,1.81,2.66,1.81,4.69v5.04h-2.37Z"/>
          <path class="cls-1" d="M34.38,90.73l-6.94,18.45h-2.24l6.94-18.45h2.24Z"/>
          <path class="cls-1" d="M40.3,109.18v-13.43c0-.95-.12-1.64-.37-2.08s-.54-.72-.9-.85c-.36-.13-.73-.2-1.11-.2h-.08c-.17,.59-.46,1.08-.85,1.5-.39,.41-.88,.62-1.47,.62h-.5l.89-4.01h2.24c1.01,0,1.85,.16,2.51,.49,.67,.33,1.17,.83,1.5,1.52s.49,1.59,.49,2.71v3.07h4.88v-7.8h2.37v18.45h-2.37v-8.6h-4.88v8.6h-2.37Z"/>
          <path class="cls-1" d="M61.7,90.73l-6.94,18.45h-2.24l6.94-18.45h2.24Z"/>
          <path class="cls-1" d="M76.31,109.18l3.89-9.35h-1.38c-1.22,0-2.15-.3-2.8-.89-.65-.59-.98-1.47-.98-2.62,0-.6,.04-1.24,.12-1.9,.08-.66,.19-1.32,.33-1.98h-2.82v7.44c-.59,.6-1.3,1.1-2.11,1.49-.82,.39-1.74,.58-2.76,.58-1.48,0-2.65-.44-3.52-1.32-.87-.88-1.31-2.13-1.31-3.75,0-1.27,.26-2.37,.77-3.28,.51-.91,1.25-1.62,2.22-2.12,.97-.5,2.12-.75,3.45-.75h10.33c1.49,0,2.62,.3,3.38,.9,.76,.6,1.14,1.52,1.14,2.74,0,.65-.14,1.43-.42,2.33-.28,.9-.59,1.75-.94,2.56l-4.15,9.92h-2.43Zm-8.4-9.07c.56,0,1.02-.08,1.38-.23,.37-.15,.7-.35,.99-.59v-6.85h-.73c-1.32,0-2.36,.38-3.13,1.15-.77,.77-1.15,1.86-1.15,3.29,0,1.05,.24,1.85,.72,2.4,.48,.55,1.12,.83,1.92,.83Zm12.23-1.99h.76l.57-1.42c.14-.33,.26-.69,.35-1.07,.1-.39,.15-.77,.15-1.15,0-.65-.22-1.16-.65-1.51-.44-.35-1.03-.53-1.8-.53h-1.75c-.16,.76-.27,1.42-.34,1.99-.07,.57-.1,1.11-.1,1.63,0,.74,.2,1.27,.61,1.59,.41,.32,1.14,.48,2.2,.48Z"/>
          <path class="cls-1" d="M94.67,90.73l-6.94,18.45h-2.24l6.94-18.45h2.24Z"/>
          <path class="cls-1" d="M96.86,109.18v-4.78c0-2.03,.62-3.6,1.85-4.69,1.23-1.09,2.87-1.67,4.9-1.74v-7.23h2.37v7.23c2.09,.07,3.73,.65,4.94,1.74,1.21,1.1,1.81,2.66,1.81,4.69v4.78h-2.37v-4.49c0-1.53-.38-2.67-1.15-3.41s-1.84-1.13-3.23-1.16v9.07h-2.37v-9.07c-1.36,.03-2.42,.42-3.21,1.16s-1.17,1.87-1.17,3.38v4.52h-2.37Zm1.67-20.56h.52c.52,0,.99,.19,1.41,.57,.42,.38,.71,.9,.89,1.55h3.65v1.89h-5.58l-.89-4Z"/>
          <path class="cls-1" d="M130.89,90.73l-6.94,18.45h-2.24l6.94-18.45h2.24Z"/>
          <path class="cls-1" d="M133.49,109.18v-9.33c0-1.31,.21-2.45,.63-3.42s1.05-1.73,1.9-2.27c.85-.54,1.93-.82,3.23-.82,2,0,3.44,.57,4.33,1.69,.89,1.13,1.33,2.75,1.33,4.87v9.27h-2.37v-9.15c0-1.48-.25-2.62-.75-3.42-.5-.8-1.35-1.2-2.53-1.2-1.31,0-2.19,.42-2.67,1.27-.48,.84-.72,1.97-.72,3.38v9.12h-2.37Zm4.51-15.45l-2.09-4.19h2.53l2.09,4.19h-2.53Z"/>
          <path class="cls-1" d="M161.76,109.44c-1.36,0-2.47-.28-3.34-.85-.87-.57-1.51-1.36-1.93-2.39-.42-1.03-.63-2.22-.63-3.58v-2.69c0-1.38,.21-2.58,.63-3.59,.42-1.02,1.06-1.81,1.93-2.38,.87-.57,1.98-.85,3.34-.85,1.46,0,2.63,.3,3.52,.89,.89,.59,1.53,1.4,1.93,2.43s.6,2.17,.6,3.45v2.79c0,1.28-.2,2.43-.6,3.45s-1.04,1.83-1.93,2.43-2.06,.89-3.52,.89Zm.13-2.07c.92,0,1.64-.2,2.15-.59,.51-.4,.87-.94,1.08-1.64,.21-.7,.31-1.5,.31-2.42v-2.89c0-.91-.1-1.72-.31-2.42-.21-.7-.57-1.24-1.08-1.64-.51-.4-1.23-.59-2.15-.59-1.36,0-2.3,.4-2.84,1.2-.54,.8-.81,1.94-.81,3.42v2.95c0,1.47,.27,2.6,.81,3.41,.54,.81,1.49,1.22,2.84,1.22Zm-1.23-13.18v-4.65h2.37v4.65h-2.37Z"/>
          <path class="cls-1" d="M177.49,102.1c-1.36,0-2.48-.13-3.37-.39-.89-.26-1.58-.6-2.09-1.03-.5-.43-.86-.91-1.06-1.45s-.3-1.07-.3-1.6c0-.77,.19-1.5,.56-2.17,.37-.67,1.06-1.21,2.05-1.63,.99-.41,2.39-.62,4.2-.62h1.28c1.81,0,3.2,.21,4.19,.62s1.67,.96,2.05,1.63c.38,.67,.57,1.4,.57,2.17,0,.52-.11,1.04-.31,1.56s-.56,1.01-1.06,1.45c-.49,.44-1.19,.79-2.07,1.06-.89,.27-2.01,.4-3.36,.4h-1.28Zm-6.62,5.94l.89-4h5.58v1.89h-3.65c-.17,.64-.47,1.15-.89,1.54-.42,.39-.89,.58-1.41,.58h-.52Zm6.62-7.88h1.28c1.2,0,2.12-.11,2.75-.33,.63-.22,1.07-.53,1.32-.92,.24-.39,.37-.82,.37-1.28s-.11-.86-.34-1.23c-.23-.37-.66-.67-1.29-.9-.63-.23-1.57-.35-2.8-.35h-1.28c-1.27,0-2.22,.12-2.86,.35-.63,.23-1.06,.54-1.26,.92s-.31,.78-.31,1.21c0,.48,.12,.92,.35,1.31,.24,.39,.67,.69,1.32,.9s1.56,.32,2.76,.32Zm-2.11,5.76v-1.89h9.28v1.89h-9.28Zm1.56-.7v-14.47h2.37v14.47h-2.37Zm5.4,3.95v-5.14h2.32v5.14h-2.32Z"/>
          <path class="cls-1" d="M198.76,111.3c-.61,0-1.1-.23-1.49-.7s-.64-.94-.78-1.42h-1.67c-1.53,0-2.76-.21-3.7-.62-.94-.41-1.62-1.05-2.05-1.91s-.64-1.96-.64-3.28v-2.27c0-1.79,.15-3.34,.44-4.64,.3-1.3,.76-2.37,1.4-3.22,.63-.84,1.44-1.47,2.41-1.89,.97-.41,2.14-.62,3.49-.62h2.45l.89,4.01h-.52c-.59,0-1.08-.22-1.47-.66s-.66-.93-.82-1.46h-.65c-1.11,0-2.06,.25-2.84,.75-.78,.5-1.38,1.38-1.79,2.63-.41,1.26-.61,3.03-.61,5.32v1.91c0,.95,.13,1.72,.4,2.33s.7,1.04,1.3,1.32c.6,.28,1.4,.41,2.39,.41h1.59c.14-.48,.4-.95,.79-1.41s.88-.68,1.47-.68h.55l-.68,3.05,.68,3.05h-.55Z"/>
          <path class="cls-1" d="M203.9,109.18l4.75-10.41h-2.68v-3.23c0-.76-.1-1.35-.3-1.77-.2-.42-.48-.72-.85-.89s-.8-.26-1.3-.26h-.39c-.21,.67-.51,1.19-.91,1.56-.4,.37-.88,.56-1.44,.56h-.47l.89-4.01h2.58c1.06,0,1.93,.18,2.59,.53s1.16,.88,1.49,1.58,.48,1.57,.48,2.62v1.29h3.68l-5.5,12.43h-2.61Z"/>
          <path class="cls-1" d="M220.54,109.18c.24-2.46,.54-4.55,.9-6.27,.36-1.71,.81-3.12,1.34-4.22s1.19-1.98,1.94-2.62,1.65-1.12,2.67-1.43l-1.7-3.9h2.53l8.03,18.45h-2.48l-5.61-12.66c-.61,.17-1.2,.49-1.76,.94-.56,.46-1.06,1.08-1.5,1.87-.44,.79-.79,1.8-1.07,3.02h1.93c1.09,0,1.96,.29,2.59,.87,.63,.58,.95,1.36,.95,2.34,0,1.15-.4,2.05-1.2,2.67-.8,.63-1.92,.94-3.36,.94h-4.23Zm2.56-1.71h1.23c.9,0,1.58-.15,2.02-.44s.66-.76,.66-1.39c0-.5-.16-.88-.49-1.14s-.83-.39-1.49-.39h-1.49c-.05,.38-.11,.75-.17,1.12s-.11,.74-.16,1.11c-.04,.37-.08,.75-.12,1.12Z"/>
          <path class="cls-1" d="M237.78,111.3l.89-4.01h2.19c.92,0,1.65-.12,2.18-.37,.53-.25,.91-.68,1.13-1.28,.22-.6,.34-1.41,.34-2.43v-12.48h2.37v12.66c0,1.24-.2,2.29-.61,3.15-.41,.86-1.03,1.52-1.85,1.96s-1.87,.67-3.14,.67h-.68c-.16,.6-.44,1.11-.86,1.51-.42,.4-.9,.61-1.43,.61h-.52Zm7.17-7.98c-1.36,0-2.48-.13-3.36-.39s-1.58-.6-2.09-1.03-.86-.91-1.06-1.45-.3-1.07-.3-1.6c0-.78,.19-1.5,.56-2.17,.37-.67,1.06-1.22,2.05-1.63,.99-.41,2.39-.62,4.2-.62h1.28c1.81,0,3.2,.21,4.19,.62,.98,.41,1.66,.96,2.05,1.63,.38,.67,.57,1.39,.57,2.17,0,.52-.1,1.04-.31,1.56-.21,.53-.56,1.01-1.06,1.45s-1.19,.79-2.07,1.06-2.01,.4-3.36,.4h-1.28Zm-6.28-10.1l.68-3.05-.68-3.05h.63c.56,0,1.03,.23,1.42,.69s.65,.93,.77,1.41h8.16c.14-.48,.4-.95,.79-1.41s.86-.69,1.4-.69h.62l-.68,3.05,.68,3.05h-.62c-.54,0-1-.23-1.4-.7s-.66-.94-.79-1.42h-8.16c-.12,.48-.38,.96-.77,1.42s-.87,.7-1.42,.7h-.63Zm6.28,8.16h1.28c1.2,0,2.12-.11,2.75-.34,.63-.22,1.07-.53,1.32-.92s.37-.81,.37-1.28-.11-.86-.34-1.23c-.22-.37-.66-.67-1.29-.9s-1.57-.35-2.8-.35h-1.28c-1.27,0-2.22,.12-2.86,.35s-1.06,.54-1.27,.92c-.21,.38-.31,.78-.31,1.22,0,.48,.12,.92,.35,1.3,.24,.39,.67,.69,1.32,.9,.64,.22,1.57,.32,2.76,.32Zm-.44-9.66v-2.33h2.37v2.33h-2.37Z"/>
          <path class="cls-1" d="M256.01,109.18v-4.78c0-2.03,.62-3.6,1.85-4.69,1.23-1.09,2.87-1.67,4.9-1.74v-7.23h2.37v7.23c2.09,.07,3.73,.65,4.94,1.74,1.21,1.1,1.81,2.66,1.81,4.69v4.78h-2.37v-4.49c0-1.53-.38-2.67-1.15-3.41s-1.84-1.13-3.23-1.16v9.07h-2.37v-9.07c-1.36,.03-2.42,.42-3.21,1.16s-1.17,1.87-1.17,3.38v4.52h-2.37Zm1.67-20.56h.52c.52,0,.99,.19,1.41,.57,.42,.38,.71,.9,.89,1.55h3.65v1.89h-5.58l-.89-4Z"/>
          <path class="cls-1" d="M278.85,109.18l4.13-10.41h-2.34v-3.23c0-.76-.09-1.35-.26-1.77-.17-.42-.42-.72-.74-.89s-.7-.26-1.14-.26h-.34c-.18,.67-.45,1.19-.79,1.56-.35,.37-.77,.56-1.25,.56h-.41l.77-4.01h2.25c.92,0,1.68,.18,2.26,.53s1.01,.88,1.29,1.58,.42,1.57,.42,2.62v1.29h3.2l-4.79,12.43h-2.27Z"/>
          <path class="cls-1" d="M300.08,109.44c-1.17,0-2.11-.32-2.83-.96s-1.25-1.57-1.59-2.82-.51-2.76-.51-4.55c0-1.55,.15-2.96,.44-4.22s.73-2.36,1.29-3.28c.57-.92,1.27-1.63,2.11-2.13,.84-.5,1.81-.75,2.91-.75h9.41c1.79,0,3.1,.69,3.94,2.05,.83,1.37,1.25,3.41,1.25,6.14s-.43,4.77-1.29,6.21-2.16,2.16-3.9,2.16h-3.57v-14.75h-2.9v13.97c-.36,.57-.78,1.07-1.24,1.51s-.98,.78-1.56,1.03c-.58,.25-1.24,.37-1.97,.37Zm.1-1.89c.49,0,.91-.1,1.28-.31,.37-.21,.7-.53,1.02-.98v-13.72h-.37c-.75,0-1.41,.18-1.98,.53-.57,.35-1.06,.88-1.46,1.59-.4,.71-.7,1.59-.9,2.65-.2,1.06-.3,2.3-.3,3.73,0,1.52,.11,2.75,.33,3.71,.22,.95,.53,1.66,.94,2.12,.41,.46,.89,.69,1.45,.69Zm9.94-2.12h.86c.63,0,1.15-.15,1.57-.45,.42-.3,.75-.74,.99-1.3,.24-.57,.42-1.26,.52-2.07s.16-1.71,.16-2.71c0-.93-.06-1.78-.17-2.56-.11-.78-.29-1.45-.52-2.02-.24-.57-.55-1.01-.95-1.32-.4-.31-.89-.46-1.46-.46h-.99v12.89Z"/>
          <path class="cls-1" d="M319.11,111.3l.89-4.01h5.58v1.89h-3.65c-.17,.64-.47,1.15-.89,1.54s-.89,.58-1.41,.58h-.52Zm10.61-2.12c-1.36,0-2.56-.29-3.61-.87-1.05-.58-1.93-1.37-2.63-2.39-.7-1.02-1.24-2.21-1.6-3.58s-.55-2.84-.55-4.4c0-1.83,.23-3.29,.69-4.38s1.11-1.89,1.96-2.38c.84-.49,1.83-.74,2.96-.74,1.06,0,1.9,.18,2.52,.53,.62,.35,1.06,.81,1.32,1.38,.26,.57,.39,1.18,.39,1.83,0,.91-.24,1.73-.73,2.47-.49,.73-1.27,1.31-2.35,1.73s-2.5,.63-4.28,.63c.05,1.19,.23,2.28,.53,3.27s.72,1.84,1.24,2.56,1.14,1.27,1.84,1.67c.7,.4,1.48,.59,2.33,.59,1.18,0,2.01-.35,2.49-1.06,.48-.71,.72-1.64,.72-2.79v-.98h2.37v.75c0,1.33-.22,2.45-.65,3.37s-1.07,1.61-1.9,2.08-1.85,.7-3.05,.7Zm-6-11.99c1.15-.02,2.1-.12,2.86-.32,.75-.2,1.32-.51,1.69-.93,.37-.42,.56-.97,.56-1.64,0-.71-.19-1.23-.56-1.57s-.86-.52-1.47-.52c-1.01,0-1.77,.42-2.29,1.25s-.78,1.97-.78,3.4v.33Zm.13,11.99v-1.89h3.6l2.17,1.89h-5.76Z"/>
          <path class="cls-1" d="M348.47,109.18l-3.94-12.56c-.71,.17-1.35,.52-1.9,1.03-.56,.52-1.04,1.32-1.45,2.41-.41,1.1-.76,2.61-1.06,4.53h-2.24c.24-1.6,.54-2.97,.87-4.11,.34-1.14,.75-2.08,1.23-2.84,.48-.76,1.04-1.37,1.68-1.84s1.39-.83,2.24-1.08l-1.25-4.01h2.53l5.76,18.45h-2.48Z"/>
        </g>
      </g>
    </g>
  </g>
</svg>