<?xml version="1.0" encoding="UTF-8"?>
<svg id="Layer_2" data-name="Layer 2" xmlns="http://www.w3.org/2000/svg" viewBox="0 0 358.08 79.43">
  <defs>
    <style>
      .cls-1 {
        fill: #288fb2;
      }
    </style>
  </defs>
  <g id="Layer_1-2" data-name="Layer 1">
    <g>
      <path class="cls-1" d="M74.01,4V75.43H4V4H74.01m4-4H0V79.43H78.01V0h0Z"/>
      <g>
        <path class="cls-1" d="M319.05,23.69c-5.76,14.68-8.63,22.37-8.63,23.06,0,.95,1.06,1.5,3.17,1.67,.11,.03,1.47,.04,4.09,.04h4.3c3.98,0,5.96-.56,5.96-1.67,0-.81-1.25-4.42-3.75-10.84-2.42-6.23-4.13-10.31-5.13-12.26Z"/>
        <path class="cls-1" d="M76.64,0V79.35H358.08V0H76.64Zm69,70.31c-.5,0-1.26-.04-2.27-.13-1.02-.08-1.77-.13-2.27-.13s-1.27,.04-2.29,.13c-1.03,.08-1.79,.13-2.29,.13-.7,0-1.04-.46-1.04-1.38,0-3.53,.11-8.83,.33-15.89,.22-7.06,.33-12.36,.33-15.89,0-.53-.11-.79-.33-.79-.25,0-.44,.15-.58,.46-1.42,3.03-4.77,11.12-10.05,24.27-.86,2.53-2.1,5.69-3.71,9.47-.19,.36-1.2,.54-3,.54-2.61,0-4.06-.24-4.34-.71-.95-2.25-2.29-5.41-4.05-9.47-2.31-5.5-5.85-13.71-10.63-24.61-.08-.19-.26-.39-.54-.58-.22,.17-.33,.47-.33,.92,0,3.59,.06,8.97,.19,16.14,.12,7.17,.19,12.55,.19,16.14,0,.92-.35,1.38-1.04,1.38-.47,0-1.2-.04-2.17-.13-.97-.08-1.7-.13-2.17-.13-.5,0-1.24,.04-2.23,.13-.99,.08-1.73,.13-2.23,.13-.7,0-1.04-.26-1.04-.79,0-3.09,.15-7.71,.44-13.87,.29-6.16,.44-10.78,.44-13.87s-.15-8-.44-14.41c-.29-6.41-.44-11.21-.44-14.41,0-.53,.32-.83,.96-.92,3.78-.5,6.63-.75,8.55-.75,.28,0,.67,.57,1.17,1.71,6.73,14.79,12.51,28,17.35,39.62,1.14,2.73,1.82,4.09,2.04,4.09,.28,0,.88-1.11,1.79-3.34,3.78-9.01,9.02-22.38,15.72-40.12,.42-1.08,.88-1.63,1.38-1.63,.94,0,2.37,.06,4.28,.17,1.9,.11,3.33,.17,4.27,.17,.69,0,1.04,.33,1.04,1,0,3.2-.1,8-.31,14.41-.21,6.41-.31,11.21-.31,14.41s.12,7.65,.35,13.76c.24,6.12,.35,10.69,.35,13.72,0,.7-.35,1.04-1.04,1.04Zm49.04-6.46c-.25,1.06-.4,1.7-.46,1.92-.08,1-.28,2.46-.58,4.38-.14,.5-.5,.75-1.08,.75-.28,0-.81-.06-1.58-.17-3.42-.5-8.72-.75-15.89-.75-2.03,0-5.09,.06-9.17,.17-4.09,.11-7.15,.17-9.18,.17-.92,0-1.38-.4-1.38-1.21,0-3.11,.17-7.79,.52-14.03,.35-6.24,.52-10.92,.52-14.03s-.17-9.08-.5-17.72c-.06-2.22-.21-5.55-.46-9.97l-.04-.58c-.03-.64,.33-.96,1.08-.96,1.95,0,4.86,.06,8.76,.17,3.89,.11,6.81,.17,8.76,.17s4.65-.06,8.36-.17c3.71-.11,6.5-.17,8.36-.17,1.31,0,2.02,.4,2.13,1.21,.58,3.67,.88,5.95,.88,6.84,0,.64-.31,.96-.92,.96-2.36,0-5.94-.13-10.74-.4-4.8-.26-8.4-.4-10.82-.4-2.28,0-3.72,.31-4.32,.92-.6,.61-.9,2.13-.9,4.55v6.21c0,1.7,.04,2.68,.13,2.96,.25,.86,.97,1.29,2.17,1.29,.33,0,.81-.01,1.42-.04h1.42c5.45,0,10.34-.1,14.68-.29,1.7-.06,3.7-.19,6.01-.42,.58-.06,.88,.2,.88,.75,0,.89-.1,2.25-.31,4.09-.21,1.83-.31,3.21-.31,4.13,0,.5-.42,.75-1.25,.75-.33,0-1.57-.1-3.71-.29-1.56-.17-5.06-.25-10.51-.25-4.59,0-7.49,.06-8.72,.17-1.11,.08-1.75,.67-1.92,1.75,.03-.19,.04,.88,.04,3.21v6.17c0,2.89,.44,4.7,1.33,5.42,.69,.58,2.43,.88,5.21,.88l4.59-.04c1.95,0,7.41-.33,16.39-1l.63-.04c.56-.06,.83,.29,.83,1.04,0,.45-.11,1.08-.33,1.92Zm43.87-23.73c-3.28,4.25-6.55,8.51-9.8,12.76-.81,1.06-1.21,2.14-1.21,3.25,0,1.5,.08,3.75,.23,6.74,.15,2.99,.23,5.22,.23,6.69,0,.5-.35,.75-1.04,.75h-9.93c-.56,0-.83-.4-.83-1.21,0-1.42,.1-3.57,.29-6.46,.19-2.89,.29-5.06,.29-6.51,0-1.25-.35-2.36-1.04-3.34-2-2.59-4.99-6.48-8.97-11.68-3.39-4.64-5.84-8.17-7.34-10.59-.5-.83-.75-1.64-.75-2.42-.06-3.5-.08-8.56-.08-15.18,0-.75,.33-1.13,1-1.13,.47,0,1.17,.04,2.11,.13,.93,.08,1.63,.13,2.11,.13,.56,0,1.39-.04,2.5-.13,1.11-.08,1.96-.13,2.54-.13,.5,0,.75,.22,.75,.67,0,1.56-.08,3.89-.25,7.01-.17,3.11-.25,5.45-.25,7.01,0,1.67,4.41,7.54,13.22,17.6,2.09-2.36,4.48-5.3,7.17-8.8,3.75-4.84,5.63-7.74,5.63-8.72,0-1.5-.11-3.77-.33-6.82-.22-3.04-.33-5.32-.33-6.82,0-.75,.32-1.13,.96-1.13,.5,0,1.27,.04,2.29,.13,1.03,.08,1.79,.13,2.29,.13,.53,0,1.33-.04,2.4-.13,1.07-.08,1.87-.13,2.4-.13,.67,0,1,.46,1,1.38,0,1.58,.03,3.98,.08,7.17,.06,3.2,.08,5.59,.08,7.17s-2.47,5.78-7.42,12.59Zm51.76,29.44c-.19,.81-.68,1.21-1.46,1.21-2.06,0-5.14-.12-9.26-.35-4.11-.24-7.2-.35-9.26-.35-1.95,0-4.85,.04-8.72,.13-4.63,.1-7.88,.14-9.75,.12-.03-2.98,.07-7.9,.31-14.76,.21-6.12,.31-10.7,.31-13.76,0-3.22-.15-8.06-.44-14.49-.29-6.44-.44-11.27-.44-14.49,0-.61,.35-.92,1.04-.92,.5,0,1.27,.04,2.29,.13,1.03,.08,1.81,.13,2.34,.13,.5,0,1.28-.04,2.34-.13,1.06-.08,1.83-.13,2.34-.13,.67,0,1,.26,1,.79,0,2.95-.11,7.38-.33,13.3-.22,5.92-.33,10.37-.33,13.35v6.59c-.03,2.95-.04,5.14-.04,6.59,0,6.17,.25,9.26,.75,9.26,10.26,0,18-.25,23.23-.75,.25-.03,.89-.13,1.92-.29,.83-.17,1.47-.25,1.92-.25,.58,0,.88,.26,.88,.79,0,3.89-.21,6.66-.63,8.3Zm56.05,.75c-.53,0-1.3-.04-2.31-.13s-1.79-.13-2.31-.13-1.32,.04-2.38,.13c-1.06,.08-1.85,.13-2.38,.13-.78,0-1.77-2.11-2.98-6.32-1.21-4.21-2.44-6.35-3.69-6.4-1.03-.06-3.71-.08-8.05-.08h-6.59c-4.59,0-7.2,.03-7.84,.08-1,.08-2.06,2.22-3.19,6.42-1.13,4.2-2,6.3-2.61,6.3h-9.38c-.56,0-.83-.19-.83-.58,0-.28,.19-.9,.58-1.88l10.22-27.94c.86-2.25,3.48-8.74,7.84-19.48,.78-1.78,1.84-4.46,3.17-8.05,.33-1.06,.69-1.58,1.08-1.58,.53,0,1.31,.07,2.34,.21,1.03,.14,1.81,.21,2.34,.21,.5,0,1.26-.08,2.27-.23,1.01-.15,1.76-.23,2.23-.23,.25,0,.6,.51,1.04,1.54,.67,1.56,3.96,9.94,9.88,25.15,8.37,21.38,12.55,32.17,12.55,32.36,0,.33-.33,.5-1,.5Z"/>
      </g>
      <path class="cls-1" d="M64.74,26.7h0c-.63,0-1.14-.51-1.14-1.14v-5.23h.02V10.81h-.02s-9.52-.01-9.52-.01h0s-11.48,.01-11.48,.01h0s-9.52-.01-9.52-.01h0s-11.52,.01-11.52,.01h0s-8.39-.01-8.39-.01c-.63,0-1.14,.51-1.14,1.14V46.74c0,.63-.51,1.14-1.14,1.14h0c-.63,0-1.14,.51-1.14,1.14v8.31c0,.63,.51,1.14,1.14,1.14h0c.63,0,1.14,.51,1.14,1.14v7.9c0,.63,.51,1.14,1.14,1.14h7.25c.63,0,1.14-.51,1.14-1.14v-7.9c0-.63,.51-1.14,1.14-1.14h0c.63,0,1.14-.51,1.14-1.14v-8.31c0-.63-.51-1.14-1.14-1.14h0c-.63,0-1.14-.51-1.14-1.14V21.47c0-.63,.51-1.14,1.14-1.14h9.25c.63,0,1.14,.51,1.14,1.14v14.68c0,.63-.51,1.14-1.14,1.14h0c-.63,0-1.14,.51-1.14,1.14v8.31c0,.63,.51,1.14,1.14,1.14h0c.63,0,1.14,.51,1.14,1.14v18.48c0,.63,.51,1.14,1.14,1.14h7.25c.63,0,1.14-.51,1.14-1.14v-18.48c0-.63,.51-1.14,1.14-1.14h0c.63,0,1.14-.51,1.14-1.14v-8.31c0-.63-.51-1.14-1.14-1.14h0c-.63,0-1.14-.51-1.14-1.14v-14.68c0-.63,.51-1.14,1.14-1.14h9.21c.63,0,1.14,.51,1.14,1.14v4.09c0,.63-.51,1.14-1.14,1.14h0c-.63,0-1.14,.51-1.14,1.14v8.31c0,.63,.51,1.14,1.14,1.14h0c.63,0,1.14,.51,1.14,1.14v29.07c0,.63,.51,1.14,1.14,1.14h7.25c.63,0,1.14-.51,1.14-1.14v-29.07c0-.63,.51-1.14,1.14-1.14h0c.63,0,1.14-.51,1.14-1.14v-8.31c0-.63-.51-1.14-1.14-1.14Z"/>
    </g>
  </g>
</svg>